# Blender v3.6.0 OBJ File: ''
# www.blender.org
mtllib casette_model_very_simple.mtl
o Cube_Cube.001
v -0.250000 -1.123179 2.073604
v -0.250000 1.482452 2.073604
v -0.250000 -1.123179 -2.073604
v -0.250000 1.482452 -2.073604
v 0.250000 -1.123179 2.073604
v 0.250000 1.482452 2.073604
v 0.250000 -1.123179 -2.073604
v 0.250000 1.482452 -2.073604
v -0.250000 0.306880 -0.645109
v -0.250000 0.260853 -0.649642
v -0.250000 0.352908 -0.649642
v -0.250000 0.175805 -0.684870
v -0.250000 0.437956 -0.684870
v -0.250000 0.216594 -0.663068
v -0.250000 0.397167 -0.663068
v -0.250000 0.110712 -0.749963
v -0.250000 0.503049 -0.749963
v -0.250000 0.075484 -0.835011
v -0.250000 0.538277 -0.835011
v -0.250000 0.088909 -0.790752
v -0.250000 0.524851 -0.790752
v -0.250000 0.140053 -0.714211
v -0.250000 0.473708 -0.714211
v -0.250000 0.075484 -0.927067
v -0.250000 0.538277 -0.927067
v -0.250000 0.110712 -1.012115
v -0.250000 0.503049 -1.012115
v -0.250000 0.088909 -0.971326
v -0.250000 0.524851 -0.971326
v -0.250000 0.175805 -1.077208
v -0.250000 0.437956 -1.077208
v -0.250000 0.306880 -1.116969
v -0.250000 0.260853 -1.112436
v -0.250000 0.352908 -1.112436
v -0.250000 0.216594 -1.099010
v -0.250000 0.397167 -1.099010
v -0.250000 0.140053 -1.047867
v -0.250000 0.473708 -1.047867
v -0.250000 0.542810 -0.881039
v -0.250000 0.070950 -0.881039
v 0.250000 0.306880 -0.645109
v 0.250000 0.260853 -0.649642
v 0.250000 0.352908 -0.649642
v 0.250000 0.175805 -0.684870
v 0.250000 0.437956 -0.684870
v 0.250000 0.216594 -0.663068
v 0.250000 0.397167 -0.663068
v 0.250000 0.110712 -0.749963
v 0.250000 0.503049 -0.749963
v 0.250000 0.075484 -0.835011
v 0.250000 0.538277 -0.835011
v 0.250000 0.088909 -0.790752
v 0.250000 0.524851 -0.790752
v 0.250000 0.140053 -0.714211
v 0.250000 0.473708 -0.714211
v 0.250000 0.075484 -0.927067
v 0.250000 0.538277 -0.927067
v 0.250000 0.110712 -1.012115
v 0.250000 0.503049 -1.012115
v 0.250000 0.088909 -0.971326
v 0.250000 0.524851 -0.971326
v 0.250000 0.175805 -1.077208
v 0.250000 0.437956 -1.077208
v 0.250000 0.306880 -1.116969
v 0.250000 0.260853 -1.112436
v 0.250000 0.352908 -1.112436
v 0.250000 0.216594 -1.099010
v 0.250000 0.397167 -1.099010
v 0.250000 0.140053 -1.047867
v 0.250000 0.473708 -1.047867
v 0.250000 0.542810 -0.881039
v 0.250000 0.070950 -0.881039
v -0.250000 0.306880 1.111104
v -0.250000 0.260853 1.106571
v -0.250000 0.352908 1.106571
v -0.250000 0.216594 1.093145
v -0.250000 0.437956 1.071343
v -0.250000 0.175805 1.071343
v -0.250000 0.397167 1.093145
v -0.250000 0.140053 1.042002
v -0.250000 0.503049 1.006250
v -0.250000 0.075484 0.921202
v -0.250000 0.088909 0.965461
v -0.250000 0.538277 0.921202
v -0.250000 0.110712 1.006250
v -0.250000 0.524851 0.965461
v -0.250000 0.473708 1.042002
v -0.250000 0.075484 0.829147
v -0.250000 0.538277 0.829147
v -0.250000 0.110712 0.744099
v -0.250000 0.503049 0.744099
v -0.250000 0.088909 0.784888
v -0.250000 0.524851 0.784888
v -0.250000 0.175805 0.679006
v -0.250000 0.437956 0.679006
v -0.250000 0.306880 0.639244
v -0.250000 0.352908 0.643778
v -0.250000 0.260853 0.643778
v -0.250000 0.397167 0.657203
v -0.250000 0.216594 0.657203
v -0.250000 0.473708 0.708347
v -0.250000 0.140053 0.708347
v -0.250000 0.070950 0.875174
v -0.250000 0.542810 0.875174
v 0.250000 0.306880 1.111104
v 0.250000 0.260853 1.106571
v 0.250000 0.352908 1.106571
v 0.250000 0.175805 1.071343
v 0.250000 0.397167 1.093145
v 0.250000 0.216594 1.093145
v 0.250000 0.437956 1.071343
v 0.250000 0.110712 1.006250
v 0.250000 0.473708 1.042002
v 0.250000 0.538277 0.921202
v 0.250000 0.075484 0.921202
v 0.250000 0.524851 0.965461
v 0.250000 0.088909 0.965461
v 0.250000 0.503049 1.006250
v 0.250000 0.140053 1.042002
v 0.250000 0.075484 0.829147
v 0.250000 0.538277 0.829147
v 0.250000 0.110712 0.744099
v 0.250000 0.503049 0.744099
v 0.250000 0.088909 0.784888
v 0.250000 0.524851 0.784888
v 0.250000 0.175805 0.679006
v 0.250000 0.437956 0.679006
v 0.250000 0.306880 0.639244
v 0.250000 0.352908 0.643778
v 0.250000 0.260853 0.643778
v 0.250000 0.397167 0.657203
v 0.250000 0.216594 0.657203
v 0.250000 0.473708 0.708347
v 0.250000 0.140053 0.708347
v 0.250000 0.070950 0.875174
v 0.250000 0.542810 0.875174
vt 0.512208 0.058021
vt 0.507792 0.058294
vt 0.375000 0.000000
vt 0.490007 0.180885
vt 0.375000 0.250000
vt 0.489572 0.178110
vt 0.507792 0.192059
vt 0.512209 0.192333
vt 0.625000 0.250000
vt 0.375000 0.500000
vt 0.512209 0.557667
vt 0.507792 0.557941
vt 0.490007 0.680532
vt 0.375000 0.750000
vt 0.489572 0.677757
vt 0.507793 0.691706
vt 0.512208 0.691979
vt 0.625000 0.750000
vt 0.375000 1.000000
vt 0.125000 0.750000
vt 0.125000 0.500000
vt 0.875000 0.500000
vt 0.625000 0.500000
vt 0.968750 0.653529
vt 1.000000 0.846471
vt 1.000000 0.653529
vt 0.937500 0.653529
vt 0.968750 0.846471
vt 0.906250 0.653529
vt 0.937500 0.846471
vt 0.875000 0.653529
vt 0.906250 0.846471
vt 0.843750 0.653529
vt 0.875000 0.846471
vt 0.812500 0.653529
vt 0.843750 0.846471
vt 0.781250 0.653529
vt 0.812500 0.846471
vt 0.750000 0.653529
vt 0.781250 0.846471
vt 0.718750 0.653529
vt 0.750000 0.846471
vt 0.687500 0.653529
vt 0.718750 0.846471
vt 0.656250 0.653529
vt 0.687500 0.846471
vt 0.625000 0.846471
vt 0.625000 0.653529
vt 0.593750 0.846471
vt 0.593750 0.653529
vt 0.562500 0.846471
vt 0.562500 0.653529
vt 0.531250 0.846471
vt 0.531250 0.653529
vt 0.500000 0.846471
vt 0.500000 0.653529
vt 0.468750 0.846471
vt 0.468750 0.653529
vt 0.437500 0.846471
vt 0.437500 0.653529
vt 0.406250 0.846471
vt 0.406250 0.653529
vt 0.375000 0.846471
vt 0.375000 0.653529
vt 0.343750 0.846471
vt 0.343750 0.653529
vt 0.312500 0.846471
vt 0.312500 0.653529
vt 0.281250 0.846471
vt 0.281250 0.653529
vt 0.250000 0.846471
vt 0.250000 0.653529
vt 0.218750 0.846471
vt 0.218750 0.653529
vt 0.187500 0.846471
vt 0.187500 0.653529
vt 0.156250 0.846471
vt 0.156250 0.653529
vt 0.125000 0.653529
vt 0.093750 0.653529
vt 0.125000 0.846471
vt 0.062500 0.653529
vt 0.093750 0.846471
vt 0.031250 0.653529
vt 0.062500 0.846471
vt 0.000000 0.653529
vt 0.031250 0.846471
vt 0.968750 0.667603
vt 1.000000 0.832397
vt 1.000000 0.667603
vt 0.937500 0.667603
vt 0.968750 0.832397
vt 0.906250 0.667603
vt 0.937500 0.832397
vt 0.875000 0.667603
vt 0.906250 0.832397
vt 0.843750 0.667603
vt 0.875000 0.832397
vt 0.812500 0.667603
vt 0.843750 0.832397
vt 0.781250 0.667603
vt 0.812500 0.832397
vt 0.750000 0.667603
vt 0.781250 0.832397
vt 0.718750 0.667603
vt 0.750000 0.832397
vt 0.687500 0.667603
vt 0.718750 0.832397
vt 0.656250 0.667603
vt 0.687500 0.832397
vt 0.625000 0.832397
vt 0.625000 0.667603
vt 0.593750 0.832397
vt 0.593750 0.667603
vt 0.562500 0.832397
vt 0.562500 0.667603
vt 0.531250 0.832397
vt 0.531250 0.667603
vt 0.500000 0.832397
vt 0.500000 0.667603
vt 0.468750 0.832397
vt 0.468750 0.667603
vt 0.437500 0.832397
vt 0.437500 0.667603
vt 0.406250 0.832397
vt 0.406250 0.667603
vt 0.375000 0.832397
vt 0.375000 0.667603
vt 0.343750 0.832397
vt 0.343750 0.667603
vt 0.312500 0.832397
vt 0.312500 0.667603
vt 0.281250 0.832397
vt 0.281250 0.667603
vt 0.250000 0.832397
vt 0.250000 0.667603
vt 0.218750 0.832397
vt 0.218750 0.667603
vt 0.187500 0.832397
vt 0.187500 0.667603
vt 0.156250 0.832397
vt 0.156250 0.667603
vt 0.125000 0.667603
vt 0.093750 0.667603
vt 0.125000 0.832397
vt 0.062500 0.667603
vt 0.093750 0.832397
vt 0.031250 0.667603
vt 0.062500 0.832397
vt 0.000000 0.667603
vt 0.031250 0.832397
vt 0.493387 0.064342
vt 0.491295 0.066801
vt 0.625000 0.000000
vt 0.531030 0.064342
vt 0.528215 0.062187
vt 0.524785 0.060418
vt 0.496202 0.062187
vt 0.499632 0.060418
vt 0.520871 0.059104
vt 0.516625 0.058294
vt 0.503546 0.059104
vt 0.533122 0.066801
vt 0.531030 0.186012
vt 0.533122 0.183553
vt 0.534410 0.180885
vt 0.534410 0.069469
vt 0.533122 0.077686
vt 0.534845 0.072243
vt 0.534410 0.075018
vt 0.534845 0.178110
vt 0.534410 0.175336
vt 0.533122 0.172668
vt 0.531030 0.170209
vt 0.531030 0.080145
vt 0.528215 0.082300
vt 0.528215 0.168054
vt 0.524785 0.084069
vt 0.524785 0.166285
vt 0.520871 0.085383
vt 0.520871 0.164971
vt 0.516625 0.086192
vt 0.516625 0.164161
vt 0.512209 0.086465
vt 0.512209 0.163888
vt 0.507792 0.086192
vt 0.507792 0.164161
vt 0.503546 0.085383
vt 0.503546 0.164971
vt 0.499633 0.084069
vt 0.499632 0.166285
vt 0.496202 0.082300
vt 0.496202 0.168054
vt 0.493387 0.080145
vt 0.493387 0.170209
vt 0.491295 0.077686
vt 0.491295 0.172668
vt 0.490007 0.075018
vt 0.490007 0.175336
vt 0.489572 0.072243
vt 0.490007 0.069469
vt 0.491295 0.183553
vt 0.528215 0.188167
vt 0.493387 0.186012
vt 0.496202 0.188167
vt 0.524785 0.189936
vt 0.520871 0.191250
vt 0.499632 0.189936
vt 0.503546 0.191250
vt 0.516625 0.192059
vt 0.493387 0.563988
vt 0.491295 0.566447
vt 0.531030 0.563988
vt 0.528215 0.561833
vt 0.524785 0.560064
vt 0.496202 0.561833
vt 0.499632 0.560064
vt 0.520871 0.558750
vt 0.516625 0.557941
vt 0.503546 0.558750
vt 0.533122 0.566447
vt 0.531030 0.685658
vt 0.533122 0.683200
vt 0.534410 0.680532
vt 0.534410 0.569115
vt 0.533122 0.672314
vt 0.534845 0.571890
vt 0.534410 0.574664
vt 0.534845 0.677757
vt 0.534410 0.674982
vt 0.533122 0.577332
vt 0.531030 0.669855
vt 0.531030 0.579791
vt 0.528215 0.581946
vt 0.528215 0.667700
vt 0.524785 0.583715
vt 0.524785 0.665932
vt 0.520871 0.585029
vt 0.520871 0.664617
vt 0.516625 0.585839
vt 0.516625 0.663808
vt 0.512209 0.586112
vt 0.512208 0.663534
vt 0.507792 0.585839
vt 0.507792 0.663808
vt 0.503546 0.585029
vt 0.503546 0.664617
vt 0.499632 0.583715
vt 0.499633 0.665932
vt 0.496202 0.581946
vt 0.496202 0.667700
vt 0.493387 0.579791
vt 0.493387 0.669855
vt 0.491295 0.577332
vt 0.491295 0.672314
vt 0.490007 0.574664
vt 0.490007 0.674982
vt 0.489572 0.571890
vt 0.490007 0.569115
vt 0.491295 0.683199
vt 0.528215 0.687813
vt 0.493387 0.685658
vt 0.496202 0.687813
vt 0.524785 0.689582
vt 0.520871 0.690896
vt 0.499633 0.689582
vt 0.503546 0.690897
vt 0.516625 0.691706
vt 0.625000 1.000000
vt 0.875000 0.750000
vt 0.656250 0.846471
vt 0.000000 0.846471
vt 0.656250 0.832397
vt 0.000000 0.832397
vn -1.0000 0.0000 0.0000
vn 0.0000 0.0000 -1.0000
vn 1.0000 0.0000 0.0000
vn 0.0000 0.0000 1.0000
vn 0.0000 -1.0000 0.0000
vn 0.0000 1.0000 0.0000
vn 0.0000 0.0980 0.9952
vn 0.0000 0.2903 0.9569
vn 0.0000 0.4714 0.8819
vn 0.0000 0.6344 0.7730
vn 0.0000 0.7730 0.6344
vn 0.0000 0.8819 0.4714
vn 0.0000 0.9569 0.2903
vn 0.0000 0.9952 0.0980
vn 0.0000 0.9952 -0.0980
vn 0.0000 0.9569 -0.2903
vn 0.0000 0.8819 -0.4714
vn 0.0000 0.7730 -0.6344
vn 0.0000 0.6344 -0.7730
vn 0.0000 0.4714 -0.8819
vn 0.0000 0.2903 -0.9569
vn 0.0000 0.0980 -0.9952
vn 0.0000 -0.0980 -0.9952
vn 0.0000 -0.2903 -0.9569
vn 0.0000 -0.4714 -0.8819
vn 0.0000 -0.6344 -0.7730
vn 0.0000 -0.7730 -0.6344
vn 0.0000 -0.8819 -0.4714
vn 0.0000 -0.9569 -0.2903
vn 0.0000 -0.9952 -0.0980
vn 0.0000 -0.9952 0.0980
vn 0.0000 -0.9569 0.2903
vn 0.0000 -0.8819 0.4714
vn 0.0000 -0.7730 0.6344
vn 0.0000 -0.6344 0.7730
vn 0.0000 -0.4714 0.8819
vn 0.0000 -0.2903 0.9569
vn 0.0000 -0.0980 0.9952
usemtl None
s off
f 73/1/1 74/2/1 1/3/1
f 24/4/1 3/5/1 40/6/1
f 3/5/1 33/7/1 32/8/1
f 4/9/2 7/10/2 3/5/2
f 64/11/3 65/12/3 7/10/3
f 115/13/3 5/14/3 135/15/3
f 5/14/3 106/16/3 105/17/3
f 6/18/4 1/19/4 5/14/4
f 7/10/5 1/20/5 3/21/5
f 4/22/6 6/18/6 8/23/6
f 33/24/7 64/25/7 32/26/7
f 35/27/8 65/28/8 33/24/8
f 30/29/9 67/30/9 35/27/9
f 37/31/10 62/32/10 30/29/10
f 26/33/11 69/34/11 37/31/11
f 28/35/12 58/36/12 26/33/12
f 24/37/13 60/38/13 28/35/13
f 40/39/14 56/40/14 24/37/14
f 18/41/15 72/42/15 40/39/15
f 20/43/16 50/44/16 18/41/16
f 16/45/17 52/46/17 20/43/17
f 54/47/18 16/45/18 22/48/18
f 44/49/19 22/48/19 12/50/19
f 46/51/20 12/50/20 14/52/20
f 42/53/21 14/52/21 10/54/21
f 41/55/22 10/54/22 9/56/22
f 43/57/23 9/56/23 11/58/23
f 47/59/24 11/58/24 15/60/24
f 45/61/25 15/60/25 13/62/25
f 55/63/26 13/62/26 23/64/26
f 49/65/27 23/64/27 17/66/27
f 53/67/28 17/66/28 21/68/28
f 51/69/29 21/68/29 19/70/29
f 71/71/30 19/70/30 39/72/30
f 57/73/31 39/72/31 25/74/31
f 61/75/32 25/74/32 29/76/32
f 59/77/33 29/76/33 27/78/33
f 38/79/34 59/77/34 27/78/34
f 31/80/35 70/81/35 38/79/35
f 36/82/36 63/83/36 31/80/36
f 34/84/37 68/85/37 36/82/37
f 32/86/38 66/87/38 34/84/38
f 98/88/7 128/89/7 96/90/7
f 100/91/8 130/92/8 98/88/8
f 94/93/9 132/94/9 100/91/9
f 102/95/10 126/96/10 94/93/10
f 90/97/11 134/98/11 102/95/11
f 92/99/12 122/100/12 90/97/12
f 88/101/13 124/102/13 92/99/13
f 103/103/14 120/104/14 88/101/14
f 82/105/15 135/106/15 103/103/15
f 83/107/16 115/108/16 82/105/16
f 85/109/17 117/110/17 83/107/17
f 119/111/18 85/109/18 80/112/18
f 108/113/19 80/112/19 78/114/19
f 110/115/20 78/114/20 76/116/20
f 106/117/21 76/116/21 74/118/21
f 105/119/22 74/118/22 73/120/22
f 107/121/23 73/120/23 75/122/23
f 109/123/24 75/122/24 79/124/24
f 111/125/25 79/124/25 77/126/25
f 113/127/26 77/126/26 87/128/26
f 118/129/27 87/128/27 81/130/27
f 116/131/28 81/130/28 86/132/28
f 114/133/29 86/132/29 84/134/29
f 136/135/30 84/134/30 104/136/30
f 121/137/31 104/136/31 89/138/31
f 125/139/32 89/138/32 93/140/32
f 123/141/33 93/140/33 91/142/33
f 101/143/34 123/141/34 91/142/34
f 95/144/35 133/145/35 101/143/35
f 99/146/36 127/147/36 95/144/36
f 97/148/37 131/149/37 99/146/37
f 96/150/38 129/151/38 97/148/38
f 85/152/1 83/153/1 1/3/1
f 2/154/1 81/155/1 87/156/1
f 2/154/1 87/156/1 77/157/1
f 80/158/1 85/152/1 1/3/1
f 78/159/1 80/158/1 1/3/1
f 1/3/1 2/154/1 73/1/1
f 2/154/1 77/157/1 79/160/1
f 2/154/1 79/160/1 75/161/1
f 76/162/1 78/159/1 1/3/1
f 74/2/1 76/162/1 1/3/1
f 2/154/1 75/161/1 73/1/1
f 86/163/1 81/155/1 2/154/1
f 4/9/1 27/164/1 29/165/1
f 4/9/1 29/165/1 25/166/1
f 86/163/1 2/154/1 84/167/1
f 2/154/1 4/9/1 93/168/1
f 84/167/1 2/154/1 104/169/1
f 104/169/1 2/154/1 89/170/1
f 4/9/1 25/166/1 39/171/1
f 4/9/1 39/171/1 19/172/1
f 89/170/1 2/154/1 93/168/1
f 4/9/1 19/172/1 21/173/1
f 4/9/1 21/173/1 93/168/1
f 21/173/1 17/174/1 91/175/1
f 91/175/1 93/168/1 21/173/1
f 101/176/1 91/175/1 17/174/1
f 101/176/1 17/174/1 23/177/1
f 95/178/1 101/176/1 23/177/1
f 95/178/1 23/177/1 13/179/1
f 99/180/1 95/178/1 13/179/1
f 99/180/1 13/179/1 15/181/1
f 97/182/1 99/180/1 15/181/1
f 97/182/1 15/181/1 11/183/1
f 96/184/1 97/182/1 9/185/1
f 97/182/1 11/183/1 9/185/1
f 98/186/1 96/184/1 9/185/1
f 98/186/1 9/185/1 10/187/1
f 100/188/1 98/186/1 10/187/1
f 100/188/1 10/187/1 14/189/1
f 94/190/1 100/188/1 14/189/1
f 94/190/1 14/189/1 12/191/1
f 102/192/1 94/190/1 12/191/1
f 102/192/1 12/191/1 22/193/1
f 90/194/1 102/192/1 22/193/1
f 90/194/1 22/193/1 16/195/1
f 92/196/1 90/194/1 16/195/1
f 92/196/1 16/195/1 20/197/1
f 88/198/1 92/196/1 1/3/1
f 92/196/1 20/197/1 3/5/1
f 1/3/1 92/196/1 3/5/1
f 20/197/1 18/199/1 3/5/1
f 103/200/1 88/198/1 1/3/1
f 18/199/1 40/6/1 3/5/1
f 1/3/1 83/153/1 82/201/1
f 1/3/1 82/201/1 103/200/1
f 28/202/1 3/5/1 24/4/1
f 38/203/1 27/164/1 4/9/1
f 3/5/1 28/202/1 26/204/1
f 3/5/1 26/204/1 37/205/1
f 31/206/1 38/203/1 4/9/1
f 36/207/1 31/206/1 4/9/1
f 3/5/1 37/205/1 30/208/1
f 3/5/1 30/208/1 35/209/1
f 36/207/1 4/9/1 34/210/1
f 4/9/1 3/5/1 32/8/1
f 34/210/1 4/9/1 32/8/1
f 3/5/1 35/209/1 33/7/1
f 4/9/2 8/23/2 7/10/2
f 58/211/3 60/212/3 7/10/3
f 8/23/3 59/213/3 70/214/3
f 8/23/3 70/214/3 63/215/3
f 69/216/3 58/211/3 7/10/3
f 62/217/3 69/216/3 7/10/3
f 7/10/3 8/23/3 64/11/3
f 8/23/3 63/215/3 68/218/3
f 8/23/3 68/218/3 66/219/3
f 67/220/3 62/217/3 7/10/3
f 65/12/3 67/220/3 7/10/3
f 8/23/3 66/219/3 64/11/3
f 61/221/3 59/213/3 8/23/3
f 6/18/3 118/222/3 116/223/3
f 6/18/3 116/223/3 114/224/3
f 61/221/3 8/23/3 57/225/3
f 8/23/3 6/18/3 125/226/3
f 57/225/3 8/23/3 71/227/3
f 71/227/3 8/23/3 51/228/3
f 6/18/3 114/224/3 136/229/3
f 6/18/3 136/229/3 121/230/3
f 51/228/3 8/23/3 53/231/3
f 53/231/3 8/23/3 125/226/3
f 6/18/3 121/230/3 125/226/3
f 125/226/3 123/232/3 49/233/3
f 49/233/3 53/231/3 125/226/3
f 55/234/3 49/233/3 123/232/3
f 55/234/3 123/232/3 133/235/3
f 45/236/3 55/234/3 133/235/3
f 45/236/3 133/235/3 127/237/3
f 47/238/3 45/236/3 127/237/3
f 47/238/3 127/237/3 131/239/3
f 43/240/3 47/238/3 131/239/3
f 43/240/3 131/239/3 129/241/3
f 41/242/3 43/240/3 128/243/3
f 43/240/3 129/241/3 128/243/3
f 42/244/3 41/242/3 128/243/3
f 42/244/3 128/243/3 130/245/3
f 46/246/3 42/244/3 130/245/3
f 46/246/3 130/245/3 132/247/3
f 44/248/3 46/246/3 132/247/3
f 44/248/3 132/247/3 126/249/3
f 54/250/3 44/248/3 126/249/3
f 54/250/3 126/249/3 134/251/3
f 48/252/3 54/250/3 122/253/3
f 54/250/3 134/251/3 122/253/3
f 52/254/3 48/252/3 122/253/3
f 52/254/3 122/253/3 124/255/3
f 50/256/3 52/254/3 7/10/3
f 52/254/3 124/255/3 7/10/3
f 124/255/3 120/257/3 5/14/3
f 7/10/3 124/255/3 5/14/3
f 72/258/3 50/256/3 7/10/3
f 120/257/3 135/15/3 5/14/3
f 7/10/3 60/212/3 56/259/3
f 7/10/3 56/259/3 72/258/3
f 117/260/3 5/14/3 115/13/3
f 113/261/3 118/222/3 6/18/3
f 5/14/3 117/260/3 112/262/3
f 5/14/3 112/262/3 119/263/3
f 111/264/3 113/261/3 6/18/3
f 109/265/3 111/264/3 6/18/3
f 5/14/3 119/263/3 108/266/3
f 5/14/3 108/266/3 110/267/3
f 109/265/3 6/18/3 107/268/3
f 6/18/3 5/14/3 105/17/3
f 107/268/3 6/18/3 105/17/3
f 5/14/3 110/267/3 106/16/3
f 6/18/4 2/269/4 1/19/4
f 7/10/5 5/14/5 1/20/5
f 4/22/6 2/270/6 6/18/6
f 33/24/7 65/28/7 64/25/7
f 35/27/8 67/30/8 65/28/8
f 30/29/9 62/32/9 67/30/9
f 37/31/10 69/34/10 62/32/10
f 26/33/11 58/36/11 69/34/11
f 28/35/12 60/38/12 58/36/12
f 24/37/13 56/40/13 60/38/13
f 40/39/14 72/42/14 56/40/14
f 18/41/15 50/44/15 72/42/15
f 20/43/16 52/46/16 50/44/16
f 16/45/17 48/271/17 52/46/17
f 54/47/18 48/271/18 16/45/18
f 44/49/19 54/47/19 22/48/19
f 46/51/20 44/49/20 12/50/20
f 42/53/21 46/51/21 14/52/21
f 41/55/22 42/53/22 10/54/22
f 43/57/23 41/55/23 9/56/23
f 47/59/24 43/57/24 11/58/24
f 45/61/25 47/59/25 15/60/25
f 55/63/26 45/61/26 13/62/26
f 49/65/27 55/63/27 23/64/27
f 53/67/28 49/65/28 17/66/28
f 51/69/29 53/67/29 21/68/29
f 71/71/30 51/69/30 19/70/30
f 57/73/31 71/71/31 39/72/31
f 61/75/32 57/73/32 25/74/32
f 59/77/33 61/75/33 29/76/33
f 38/79/34 70/81/34 59/77/34
f 31/80/35 63/83/35 70/81/35
f 36/82/36 68/85/36 63/83/36
f 34/84/37 66/87/37 68/85/37
f 32/86/38 64/272/38 66/87/38
f 98/88/7 130/92/7 128/89/7
f 100/91/8 132/94/8 130/92/8
f 94/93/9 126/96/9 132/94/9
f 102/95/10 134/98/10 126/96/10
f 90/97/11 122/100/11 134/98/11
f 92/99/12 124/102/12 122/100/12
f 88/101/13 120/104/13 124/102/13
f 103/103/14 135/106/14 120/104/14
f 82/105/15 115/108/15 135/106/15
f 83/107/16 117/110/16 115/108/16
f 85/109/17 112/273/17 117/110/17
f 119/111/18 112/273/18 85/109/18
f 108/113/19 119/111/19 80/112/19
f 110/115/20 108/113/20 78/114/20
f 106/117/21 110/115/21 76/116/21
f 105/119/22 106/117/22 74/118/22
f 107/121/23 105/119/23 73/120/23
f 109/123/24 107/121/24 75/122/24
f 111/125/25 109/123/25 79/124/25
f 113/127/26 111/125/26 77/126/26
f 118/129/27 113/127/27 87/128/27
f 116/131/28 118/129/28 81/130/28
f 114/133/29 116/131/29 86/132/29
f 136/135/30 114/133/30 84/134/30
f 121/137/31 136/135/31 104/136/31
f 125/139/32 121/137/32 89/138/32
f 123/141/33 125/139/33 93/140/33
f 101/143/34 133/145/34 123/141/34
f 95/144/35 127/147/35 133/145/35
f 99/146/36 131/149/36 127/147/36
f 97/148/37 129/151/37 131/149/37
f 96/150/38 128/274/38 129/151/38
